<?xml version="1.0" encoding="UTF-8"?>
<svg version="1.1" xmlns="http://www.w3.org/2000/svg" width="1024" height="1024">
<path d="M0 0 C9.13254898 9.63323698 13.71788082 22.55406598 14.0625 35.70703125 C13.3517258 51.84160566 6.78384193 66.08955268 -5.03125 77.12890625 C-15.93516477 85.82423772 -28.82671972 91.29858269 -43.03125 90.12890625 C-44.51279068 89.70451263 -44.51279068 89.70451263 -46.02426147 89.27154541 C-51.52190484 87.87074699 -55.29830017 87.12728544 -60.34945679 90.04678345 C-63.91218651 92.98438262 -67.0118285 96.36109315 -70.140625 99.74609375 C-71.32281445 100.96325347 -72.50877774 102.17675804 -73.69830322 103.38674927 C-76.80490729 106.56543138 -79.86127364 109.78824627 -82.9083252 113.02392578 C-86.63190655 116.96034562 -90.41118271 120.84318198 -94.18341446 124.7328968 C-97.11393126 127.75641661 -100.03494547 130.78749434 -102.93060303 133.8444519 C-103.46188812 134.4021225 -103.99317322 134.95979309 -104.54055786 135.53436279 C-105.53493924 136.5788255 -106.52532593 137.62711098 -107.51101685 138.67977905 C-108.64587484 139.86755924 -109.83398655 141.00405752 -111.03125 142.12890625 C-111.69125 142.12890625 -112.35125 142.12890625 -113.03125 142.12890625 C-113.258125 142.68578125 -113.485 143.24265625 -113.71875 143.81640625 C-115.40675036 146.79050213 -117.49801517 148.8489949 -120.03125 151.12890625 C-120.69125 151.12890625 -121.35125 151.12890625 -122.03125 151.12890625 C-122.2375 151.68578125 -122.44375 152.24265625 -122.65625 152.81640625 C-124.19870062 155.41052775 -126.08657988 156.90964804 -128.44140625 158.7578125 C-130.11019456 160.19698866 -131.41370922 161.71676284 -132.78125 163.44140625 C-133.52375 164.32828125 -134.26625 165.21515625 -135.03125 166.12890625 C-135.69125 166.12890625 -136.35125 166.12890625 -137.03125 166.12890625 C-137.03125 166.78890625 -137.03125 167.44890625 -137.03125 168.12890625 C-137.69125 168.12890625 -138.35125 168.12890625 -139.03125 168.12890625 C-139.27875 168.70640625 -139.52625 169.28390625 -139.78125 169.87890625 C-141.21424988 172.45830604 -142.81549676 174.19012217 -145.03125 176.12890625 C-145.69125 176.12890625 -146.35125 176.12890625 -147.03125 176.12890625 C-147.258125 176.70640625 -147.485 177.28390625 -147.71875 177.87890625 C-149.3721193 180.71325361 -151.46088944 182.09652814 -154.03125 184.12890625 C-155.71857277 186.11151051 -157.38491057 188.11214045 -159.03125 190.12890625 C-162.4858097 193.76062286 -166.18400419 196.92286808 -170.03125 200.12890625 C-171.70763459 201.785798 -173.3758063 203.45109169 -175.03125 205.12890625 C-161.52144899 205.26031242 -148.01163917 205.39077054 -134.5018177 205.52005768 C-128.22695599 205.58013619 -121.95209762 205.64052679 -115.67724609 205.70166016 C-109.60828223 205.76077566 -103.53931066 205.81903282 -97.4703331 205.87672424 C-95.16860542 205.89874955 -92.86688056 205.92107092 -90.56515884 205.94371033 C-87.31183825 205.97565611 -84.05851095 206.00668614 -80.80517578 206.03710938 C-79.78871538 206.04675468 -78.77225498 206.05639999 -77.72499275 206.06633759 C-73.03603517 206.10741419 -68.34801539 206.13388868 -63.65887451 206.12036133 C-62.8311447 206.1179821 -62.00341488 206.11560287 -61.15060234 206.11315155 C-59.6354355 206.10697041 -58.12027609 206.09789482 -56.60515022 206.08515167 C-47.03619284 206.03969958 -40.44289952 207.89300033 -33.03125 214.12890625 C-27.59113814 220.68493849 -26.73816993 226.95577165 -27.3515625 235.1875 C-29.1714893 243.06339012 -33.62920632 248.30086292 -39.29077148 253.8425293 C-40.01484192 254.56718384 -40.73891235 255.29183838 -41.48492432 256.03845215 C-43.86470011 258.41545671 -46.25830239 260.77799628 -48.65234375 263.140625 C-50.31704174 264.79785346 -51.98085197 266.45597412 -53.64381409 268.11494446 C-58.01429028 272.47018922 -62.39663707 276.81329468 -66.78161621 281.15393066 C-71.23726264 285.56869031 -75.68165001 289.9947518 -80.12695312 294.41992188 C-87.3084164 301.56626703 -94.49673505 308.70562817 -101.69398499 315.83607483 C-102.92660384 317.05742218 -104.15876246 318.27923427 -105.39034843 319.50162315 C-106.43666532 320.53925625 -107.48467467 321.57518743 -108.53489876 322.60886574 C-110.45296849 324.50492305 -112.20422937 326.35556887 -113.84375 328.50390625 C-115.73474255 330.77309731 -117.54082474 332.48349775 -119.78125 334.37890625 C-123.59916126 337.63015164 -126.8082408 341.20385238 -130.08203125 344.9921875 C-132.38205053 347.51345112 -134.87572457 349.63522813 -137.5078125 351.796875 C-139.65635787 353.67547493 -141.29504638 355.87184154 -143.03125 358.12890625 C-145.64901136 360.88444452 -148.34015745 363.4170939 -151.28125 365.81640625 C-154.04867194 367.83313845 -154.04867194 367.83313845 -155.03125 370.12890625 C-155.69125 370.12890625 -156.35125 370.12890625 -157.03125 370.12890625 C-157.258125 370.68578125 -157.485 371.24265625 -157.71875 371.81640625 C-159.87578833 375.61690235 -162.95501859 378.30757175 -166.40625 380.94140625 C-169.36203145 383.40455746 -171.70831134 386.12512147 -174.203125 389.04296875 C-176.99419309 392.227649 -180.00965809 395.16542187 -183.03125 398.12890625 C-183.8975 399.01578125 -184.76375 399.90265625 -185.65625 400.81640625 C-188.03125 403.12890625 -188.03125 403.12890625 -190.40625 404.94140625 C-193.36203145 407.40455746 -195.70831134 410.12512147 -198.203125 413.04296875 C-200.50154278 415.66552237 -202.93748941 418.11347739 -205.4296875 420.55078125 C-206.75080156 421.85256193 -208.02323233 423.20355378 -209.28125 424.56640625 C-217.12555149 431.875869 -224.0000411 436.91230467 -235.03125 437.12890625 C-241.51816878 436.74666147 -246.423005 433.57366584 -251.03125 429.12890625 C-254.64308636 424.68436986 -256.12869344 419.79145256 -256.03125 414.12890625 C-254.95696889 405.35285595 -250.07075632 399.99391147 -243.91796875 394.01171875 C-241.75756314 391.85578603 -239.91265798 389.52932333 -238.03125 387.12890625 C-236.3768769 385.45003603 -234.70746264 383.78597196 -233.03125 382.12890625 C-231.94750988 381.04848861 -230.86434518 379.9674936 -229.78164673 378.8860321 C-228.54015429 377.6475593 -227.29864748 376.4091009 -226.05712891 375.1706543 C-219.10640094 368.2362974 -212.15824577 361.29936833 -205.21152687 354.36099529 C-201.01538981 350.17007862 -196.8183222 345.98010265 -192.61914062 341.79223633 C-188.54575525 337.72975326 -184.47485106 333.66479877 -180.40562057 329.59815407 C-178.86045056 328.0548228 -177.31440495 326.51236764 -175.76744461 324.97083092 C-173.5973216 322.80801778 -171.43040011 320.64204321 -169.26416016 318.4753418 C-168.31783974 317.53441429 -168.31783974 317.53441429 -167.35240173 316.57447815 C-163.58771748 312.80116575 -160.01722085 308.90704169 -156.53900719 304.86782551 C-154.67108693 302.71352471 -152.72468172 300.65493748 -150.71875 298.62890625 C-150.06261719 297.95859375 -149.40648437 297.28828125 -148.73046875 296.59765625 C-147.03125 295.12890625 -147.03125 295.12890625 -145.03125 295.12890625 C-144.77598541 294.54832458 -144.52072083 293.96774292 -144.25772095 293.36956787 C-142.90454301 290.897423 -141.40556488 289.26257953 -139.40771484 287.27832031 C-138.66709808 286.53785461 -137.92648132 285.79738892 -137.16342163 285.03448486 C-136.36441437 284.24580017 -135.5654071 283.45711548 -134.7421875 282.64453125 C-133.92376373 281.82893738 -133.10533997 281.01334351 -132.26211548 280.17303467 C-129.64815027 277.57026063 -127.02731495 274.97452863 -124.40625 272.37890625 C-122.63235546 270.61504285 -120.85891234 268.85072535 -119.0859375 267.0859375 C-114.73959858 262.76164489 -110.38759919 258.44311295 -106.03125 254.12890625 C-106.6817098 254.12743969 -107.33216961 254.12597313 -108.00234032 254.12446213 C-123.86187597 254.08733892 -139.72115693 254.02825156 -155.58051109 253.94500351 C-163.25012925 253.90526898 -170.91964562 253.87284825 -178.58935547 253.85791016 C-185.27773621 253.84486453 -191.96589249 253.81782615 -198.65414679 253.77429318 C-202.19245428 253.75174328 -205.73048559 253.73599164 -209.26887131 253.7370224 C-213.22814257 253.73791269 -217.18685356 253.70754952 -221.14599609 253.67480469 C-222.30693787 253.67983505 -223.46787964 253.68486542 -224.66400146 253.69004822 C-232.76100006 253.5867696 -240.01745168 252.36438791 -246.46875 247.1640625 C-246.984375 246.51308594 -247.5 245.86210938 -248.03125 245.19140625 C-248.5675 244.54300781 -249.10375 243.89460938 -249.65625 243.2265625 C-253.64594202 237.1400153 -253.72772258 231.21435401 -253.03125 224.12890625 C-250.08942496 211.84510245 -234.51485531 200.47926694 -225.78702927 191.80952072 C-223.81750868 189.85299265 -221.85133068 187.89315648 -219.88589478 185.93252563 C-215.72886312 181.78678668 -211.56783799 177.64507074 -207.40625 173.50390625 C-202.54457845 168.66587555 -197.68457829 163.82618871 -192.82872391 158.98231888 C-190.89129784 157.05137345 -188.95088982 155.12345907 -187.01034546 153.19564819 C-185.83275994 152.02169199 -184.65531279 150.84759697 -183.47802734 149.67333984 C-182.66777603 148.87083801 -182.66777603 148.87083801 -181.84115601 148.05212402 C-179.09239858 145.35083294 -179.09239858 145.35083294 -177.03125 142.12890625 C-176.37125 142.12890625 -175.71125 142.12890625 -175.03125 142.12890625 C-174.70125 141.13890625 -174.37125 140.14890625 -174.03125 139.12890625 C-172.4090046 137.41897191 -170.73711575 135.75542941 -169.03125 134.12890625 C-168.309375 133.36578125 -167.5875 132.60265625 -166.84375 131.81640625 C-165.03125 130.12890625 -165.03125 130.12890625 -163.03125 130.12890625 C-163.03125 129.46890625 -163.03125 128.80890625 -163.03125 128.12890625 C-162.37125 128.12890625 -161.71125 128.12890625 -161.03125 128.12890625 C-160.76023783 127.53285458 -160.48922565 126.9368029 -160.21000099 126.32268906 C-159.04582607 124.1560339 -157.90432657 122.75517164 -156.17123413 121.02838135 C-155.58790817 120.44230606 -155.00458221 119.85623077 -154.40357971 119.25239563 C-153.76556931 118.62157578 -153.1275589 117.99075592 -152.47021484 117.34082031 C-151.46028221 116.3304496 -151.46028221 116.3304496 -150.4299469 115.29966736 C-148.20540197 113.07651471 -145.97385871 110.86052832 -143.7421875 108.64453125 C-142.19761338 107.1036876 -140.65348049 105.56240153 -139.10977173 104.02069092 C-135.04696302 99.96551588 -130.97818378 95.91638301 -126.90814209 91.86846924 C-122.75545894 87.73625014 -118.60843656 83.59835868 -114.4609375 79.4609375 C-106.32324602 71.34469126 -98.17923731 63.23481542 -90.03125 55.12890625 C-90.23838623 54.39140137 -90.44552246 53.65389648 -90.65893555 52.89404297 C-90.9300415 51.91709473 -91.20114746 50.94014648 -91.48046875 49.93359375 C-91.74947998 48.96921387 -92.01849121 48.00483398 -92.2956543 47.01123047 C-95.62674379 33.9588433 -93.42106808 20.93793712 -87.03125 9.12890625 C-77.60962215 -4.95309855 -65.25008889 -12.9351219 -48.7421875 -16.34375 C-30.41034585 -19.01075706 -13.40293236 -12.34616269 0 0 Z " fill="#9F74FE" transform="translate(645.03125,313.87109375)"/>
<path d="M0 0 C5.77759884 -0.12036664 11.27959989 0.1679418 17 1 C17 1.33 17 1.66 17 2 C10.72532201 3.0748291 6.09339169 2.88341198 0 1 C0 0.67 0 0.34 0 0 Z " fill="#9C77F4" transform="translate(402,748)"/>
<path d="M0 0 C2 1 2 1 2 1 Z " fill="#A57DF9" transform="translate(594,404)"/>
<path d="" fill="#646465" transform="translate(0,0)"/>
<path d="" fill="#9B7CED" transform="translate(0,0)"/>
<path d="" fill="#9E7EE7" transform="translate(0,0)"/>
<path d="" fill="#A27BF5" transform="translate(0,0)"/>
<path d="" fill="#A57DF9" transform="translate(0,0)"/>
<path d="" fill="#A87EFB" transform="translate(0,0)"/>
<path d="" fill="#A47BFB" transform="translate(0,0)"/>
<path d="" fill="#A07AF4" transform="translate(0,0)"/>
<path d="" fill="#9F7CF1" transform="translate(0,0)"/>
<path d="" fill="#A07DF1" transform="translate(0,0)"/>
<path d="" fill="#A57AF8" transform="translate(0,0)"/>
<path d="" fill="#A47CF7" transform="translate(0,0)"/>
<path d="" fill="#A37CF2" transform="translate(0,0)"/>
<path d="" fill="#9E7BF1" transform="translate(0,0)"/>
</svg>
